<svg aria-hidden="true" style="position: absolute; width: 0; height: 0; overflow: hidden;" version="1.1" xmlns="http://www.w3.org/2000/svg" xmlns:xlink="http://www.w3.org/1999/xlink">
<defs>
<symbol id="icon-menu" viewBox="0 0 18 16">
<path d="M0 1.28c0-0.339 0.135-0.665 0.375-0.905s0.566-0.375 0.905-0.375h15.36c0.34 0 0.665 0.135 0.905 0.375s0.375 0.566 0.375 0.905-0.135 0.665-0.375 0.905c-0.24 0.24-0.566 0.375-0.905 0.375h-15.36c-0.339 0-0.665-0.135-0.905-0.375s-0.375-0.566-0.375-0.905z"></path>
<path d="M0 7.68c0-0.339 0.135-0.665 0.375-0.905s0.566-0.375 0.905-0.375h15.36c0.34 0 0.665 0.135 0.905 0.375s0.375 0.566 0.375 0.905-0.135 0.665-0.375 0.905c-0.24 0.24-0.566 0.375-0.905 0.375h-15.36c-0.339 0-0.665-0.135-0.905-0.375s-0.375-0.566-0.375-0.905z"></path>
<path d="M0 14.080c0-0.34 0.135-0.665 0.375-0.905s0.566-0.375 0.905-0.375h15.36c0.34 0 0.665 0.135 0.905 0.375s0.375 0.566 0.375 0.905-0.135 0.665-0.375 0.905c-0.24 0.24-0.566 0.375-0.905 0.375h-15.36c-0.339 0-0.665-0.135-0.905-0.375s-0.375-0.566-0.375-0.905z"></path>
</symbol>
<symbol id="icon-send" viewBox="0 0 16 16">
<path d="M16 1.333l-16 7.5 5.113 1.578 7.887-6.161-5.999 6.744 0.005 0.002-0.006-0.002v3.672l2.868-2.788 3.633 1.121 2.5-11.667z"></path>
</symbol>
<symbol id="icon-check" viewBox="0 0 20 16">
<path d="M16.891 0.51c0.346-0.331 0.806-0.514 1.283-0.51s0.934 0.193 1.275 0.53c0.341 0.336 0.538 0.792 0.551 1.272s-0.161 0.945-0.483 1.299l-9.789 12.309c-0.168 0.182-0.371 0.329-0.597 0.43s-0.47 0.156-0.717 0.161c-0.247 0.005-0.493-0.041-0.723-0.134s-0.438-0.232-0.613-0.408l-6.492-6.527c-0.181-0.169-0.326-0.374-0.426-0.601s-0.155-0.472-0.159-0.72 0.041-0.495 0.134-0.725c0.093-0.23 0.23-0.44 0.405-0.615s0.383-0.314 0.612-0.407 0.475-0.139 0.722-0.134c0.247 0.004 0.491 0.059 0.716 0.16s0.429 0.247 0.597 0.429l5.137 5.163 8.521-10.915c0.015-0.019 0.032-0.037 0.049-0.054h-0.002z"></path>
</symbol>
<symbol id="icon-click" viewBox="0 0 40 32">
<path d="M33.782 1.020c0.691-0.662 1.611-1.027 2.565-1.020s1.869 0.387 2.55 1.059c0.681 0.672 1.076 1.584 1.101 2.543s-0.321 1.891-0.966 2.598l-19.578 24.617c-0.337 0.365-0.743 0.657-1.195 0.86s-0.939 0.312-1.434 0.322c-0.495 0.009-0.986-0.082-1.445-0.268s-0.876-0.463-1.226-0.815l-12.984-13.054c-0.362-0.339-0.652-0.747-0.853-1.201s-0.309-0.944-0.318-1.441 0.082-0.99 0.267-1.451c0.185-0.461 0.461-0.879 0.81-1.231s0.766-0.628 1.224-0.814 0.949-0.277 1.443-0.269c0.494 0.009 0.981 0.118 1.433 0.32s0.858 0.494 1.195 0.857l10.275 10.325 17.042-21.83c0.031-0.038 0.063-0.074 0.098-0.109h-0.005z"></path>
</symbol>
<symbol id="icon-email" viewBox="0 0 12 16">
<path d="M10 4h-8c-0.55 0-0.995 0.45-0.995 1l-0.005 6c0 0.55 0.45 1 1 1h8c0.55 0 1-0.45 1-1v-6c0-0.55-0.45-1-1-1zM9.8 6.125l-3.535 2.21c-0.16 0.1-0.37 0.1-0.53 0l-3.535-2.21c-0.125-0.080-0.2-0.215-0.2-0.36 0-0.335 0.365-0.535 0.65-0.36l3.35 2.095 3.35-2.095c0.285-0.175 0.65 0.025 0.65 0.36 0 0.145-0.075 0.28-0.2 0.36z"></path>
</symbol>
<symbol id="icon-person" viewBox="0 0 16 16">
<path d="M8 8c1.473 0 2.667-1.193 2.667-2.667s-1.193-2.667-2.667-2.667c-1.473 0-2.667 1.193-2.667 2.667s1.193 2.667 2.667 2.667zM8 9.333c-1.78 0-5.333 0.893-5.333 2.667v0.667c0 0.367 0.3 0.667 0.667 0.667h9.333c0.367 0 0.667-0.3 0.667-0.667v-0.667c0-1.773-3.553-2.667-5.333-2.667z"></path>
</symbol>
<symbol id="icon-phone" viewBox="0 0 12 16">
<path d="M9.484 9.577l-1.225-0.14c-0.294-0.034-0.584 0.068-0.791 0.275l-0.888 0.888c-1.365-0.695-2.485-1.809-3.179-3.179l0.893-0.893c0.207-0.207 0.309-0.497 0.275-0.791l-0.14-1.216c-0.058-0.487-0.468-0.854-0.96-0.854h-0.835c-0.545 0-0.999 0.454-0.965 0.999 0.256 4.12 3.551 7.411 7.666 7.666 0.545 0.034 0.999-0.42 0.999-0.965v-0.835c0.005-0.487-0.362-0.897-0.849-0.955z"></path>
</symbol>
<symbol id="icon-close-black" viewBox="0 0 16 16">
<path d="M16 1.611l-1.611-1.611-6.389 6.389-6.389-6.389-1.611 1.611 6.389 6.389-6.389 6.389 1.611 1.611 6.389-6.389 6.389 6.389 1.611-1.611-6.389-6.389 6.389-6.389z"></path>
</symbol>
<symbol id="icon-insta" viewBox="0 0 16 16">
<path d="M15.958 4.704c-0.037-0.85-0.175-1.435-0.372-1.941-0.203-0.538-0.516-1.019-0.925-1.419-0.4-0.406-0.885-0.722-1.416-0.922-0.509-0.197-1.091-0.334-1.941-0.372-0.857-0.041-1.128-0.050-3.301-0.050s-2.444 0.009-3.297 0.047c-0.85 0.037-1.435 0.175-1.941 0.372-0.538 0.203-1.019 0.516-1.419 0.925-0.406 0.4-0.722 0.885-0.922 1.416-0.197 0.51-0.334 1.091-0.372 1.941-0.041 0.856-0.050 1.128-0.050 3.301s0.009 2.444 0.047 3.298c0.037 0.85 0.175 1.435 0.372 1.941 0.203 0.538 0.519 1.019 0.925 1.419 0.4 0.406 0.885 0.722 1.416 0.922 0.51 0.197 1.091 0.334 1.941 0.372 0.853 0.038 1.125 0.047 3.297 0.047s2.444-0.009 3.297-0.047c0.85-0.037 1.435-0.175 1.941-0.372 1.075-0.416 1.925-1.266 2.341-2.341 0.197-0.509 0.334-1.091 0.372-1.941 0.037-0.853 0.047-1.125 0.047-3.298s-0.003-2.444-0.041-3.297zM14.517 11.237c-0.034 0.781-0.166 1.203-0.275 1.485-0.269 0.697-0.822 1.25-1.519 1.519-0.281 0.109-0.706 0.241-1.485 0.275-0.844 0.038-1.097 0.047-3.232 0.047s-2.391-0.009-3.232-0.047c-0.781-0.034-1.203-0.166-1.485-0.275-0.347-0.128-0.663-0.331-0.919-0.597-0.266-0.259-0.469-0.572-0.597-0.919-0.109-0.281-0.241-0.706-0.275-1.485-0.038-0.844-0.047-1.097-0.047-3.232s0.009-2.391 0.047-3.232c0.034-0.781 0.166-1.203 0.275-1.485 0.128-0.347 0.331-0.663 0.6-0.919 0.259-0.266 0.572-0.469 0.919-0.597 0.281-0.109 0.706-0.241 1.485-0.275 0.844-0.037 1.097-0.047 3.232-0.047 2.138 0 2.391 0.009 3.232 0.047 0.781 0.034 1.203 0.166 1.485 0.275 0.347 0.128 0.663 0.331 0.919 0.597 0.266 0.259 0.469 0.572 0.597 0.919 0.109 0.281 0.241 0.706 0.275 1.485 0.037 0.844 0.047 1.097 0.047 3.232s-0.009 2.385-0.047 3.229z"></path>
<path d="M8.003 3.891c-2.269 0-4.11 1.841-4.11 4.11s1.841 4.11 4.11 4.11c2.269 0 4.11-1.841 4.11-4.11s-1.841-4.11-4.11-4.11zM8.003 10.668c-1.472 0-2.666-1.194-2.666-2.666s1.194-2.666 2.666-2.666c1.472 0 2.666 1.194 2.666 2.666s-1.194 2.666-2.666 2.666z"></path>
<path d="M13.235 3.729c0 0.53-0.43 0.96-0.96 0.96s-0.96-0.43-0.96-0.96c0-0.53 0.43-0.96 0.96-0.96s0.96 0.43 0.96 0.96z"></path>
</symbol>
<symbol id="icon-fb" viewBox="0 0 8 16">
<path d="M6.54 2.657h1.461v-2.544c-0.252-0.035-1.119-0.113-2.128-0.113-2.106 0-3.549 1.325-3.549 3.759v2.241h-2.324v2.844h2.324v7.156h2.849v-7.155h2.23l0.354-2.844h-2.585v-1.959c0.001-0.822 0.222-1.385 1.367-1.385z"></path>
</symbol>
<symbol id="icon-in" viewBox="0 0 16 16">
<path d="M15.996 16v-0.001h0.004v-5.868c0-2.871-0.618-5.082-3.974-5.082-1.613 0-2.696 0.885-3.138 1.725h-0.047v-1.457h-3.182v10.682h3.313v-5.289c0-1.393 0.264-2.739 1.989-2.739 1.699 0 1.725 1.589 1.725 2.829v5.201h3.31z"></path>
<path d="M0.264 5.318h3.317v10.682h-3.317v-10.682z"></path>
<path d="M1.921 0c-1.061 0-1.921 0.861-1.921 1.921s0.861 1.939 1.921 1.939c1.061 0 1.921-0.879 1.921-1.939s-0.861-1.921-1.921-1.921v0z"></path>
</symbol>
<symbol id="icon-x" viewBox="0 0 16 16">
<path d="M16 3.039c-0.595 0.261-1.229 0.434-1.89 0.518 0.68-0.406 1.199-1.044 1.443-1.813-0.634 0.378-1.334 0.645-2.080 0.794-0.602-0.641-1.46-1.038-2.396-1.038-1.816 0-3.278 1.474-3.278 3.281 0 0.26 0.022 0.51 0.076 0.748-2.727-0.133-5.14-1.44-6.761-3.431-0.283 0.491-0.449 1.053-0.449 1.658 0 1.136 0.585 2.143 1.457 2.726-0.527-0.010-1.044-0.163-1.482-0.404 0 0.010 0 0.023 0 0.036 0 1.594 1.137 2.918 2.628 3.223-0.267 0.073-0.558 0.108-0.86 0.108-0.21 0-0.422-0.012-0.621-0.056 0.425 1.299 1.631 2.254 3.065 2.285-1.116 0.873-2.533 1.399-4.067 1.399-0.269 0-0.527-0.012-0.785-0.045 1.453 0.937 3.175 1.472 5.032 1.472 6.036 0 9.336-5 9.336-9.334 0-0.145-0.005-0.285-0.012-0.424 0.651-0.462 1.198-1.039 1.644-1.703z"></path>
</symbol>
<symbol id="icon-Technologies" viewBox="0 0 16 16">
<path fill="#4d5ae5" style="fill: var(--color1, #4d5ae5)" d="M15.987 2.262c-0.031-0.096-0.115-0.167-0.215-0.181l-0.955-0.139-0.427-0.866c-0.090-0.182-0.389-0.182-0.478 0l-0.427 0.866-0.955 0.139c-0.101 0.015-0.184 0.085-0.215 0.181s-0.005 0.203 0.067 0.273l0.691 0.674-0.163 0.951c-0.017 0.1 0.024 0.201 0.106 0.261 0.083 0.060 0.191 0.068 0.281 0.020l0.854-0.449 0.854 0.449c0.039 0.021 0.082 0.031 0.124 0.031 0.055 0 0.11-0.017 0.157-0.051 0.082-0.060 0.123-0.161 0.106-0.261l-0.163-0.951 0.691-0.674c0.072-0.071 0.099-0.177 0.067-0.273zM14.756 2.925c-0.063 0.061-0.091 0.15-0.077 0.236l0.095 0.557-0.5-0.263c-0.039-0.021-0.082-0.031-0.124-0.031s-0.085 0.010-0.124 0.031l-0.5 0.263 0.095-0.557c0.015-0.086-0.014-0.175-0.077-0.236l-0.405-0.395 0.559-0.081c0.087-0.013 0.162-0.067 0.201-0.146l0.25-0.507 0.25 0.507c0.039 0.079 0.114 0.133 0.201 0.146l0.559 0.081-0.405 0.395z"></path>
<path fill="#4d5ae5" style="fill: var(--color1, #4d5ae5)" d="M13.067 10.261h-0.533v0.533h0.533v-0.533z"></path>
<path fill="#4d5ae5" style="fill: var(--color1, #4d5ae5)" d="M13.067 11.328h-0.533v0.533h0.533v-0.533z"></path>
<path fill="#4d5ae5" style="fill: var(--color1, #4d5ae5)" d="M13.6 10.794h-0.533v0.533h0.533v-0.533z"></path>
<path fill="#4d5ae5" style="fill: var(--color1, #4d5ae5)" d="M12.533 10.794h-0.533v0.533h0.533v-0.533z"></path>
<path fill="#4d5ae5" style="fill: var(--color1, #4d5ae5)" d="M11.2 13.194h-0.533v0.533h0.533v-0.533z"></path>
<path fill="#4d5ae5" style="fill: var(--color1, #4d5ae5)" d="M11.2 14.261h-0.533v0.533h0.533v-0.533z"></path>
<path fill="#4d5ae5" style="fill: var(--color1, #4d5ae5)" d="M11.733 13.728h-0.533v0.533h0.533v-0.533z"></path>
<path fill="#4d5ae5" style="fill: var(--color1, #4d5ae5)" d="M10.667 13.728h-0.533v0.533h0.533v-0.533z"></path>
<path fill="#4d5ae5" style="fill: var(--color1, #4d5ae5)" d="M8 12.128h-0.533v0.533h0.533v-0.533z"></path>
<path fill="#4d5ae5" style="fill: var(--color1, #4d5ae5)" d="M8 13.194h-0.533v0.533h0.533v-0.533z"></path>
<path fill="#4d5ae5" style="fill: var(--color1, #4d5ae5)" d="M8.533 12.661h-0.533v0.533h0.533v-0.533z"></path>
<path fill="#4d5ae5" style="fill: var(--color1, #4d5ae5)" d="M7.467 12.661h-0.533v0.533h0.533v-0.533z"></path>
<path fill="#4d5ae5" style="fill: var(--color1, #4d5ae5)" d="M2.933 3.061h-0.533v0.533h0.533v-0.533z"></path>
<path fill="#4d5ae5" style="fill: var(--color1, #4d5ae5)" d="M2.933 4.128h-0.533v0.533h0.533v-0.533z"></path>
<path fill="#4d5ae5" style="fill: var(--color1, #4d5ae5)" d="M3.467 3.594h-0.533v0.533h0.533v-0.533z"></path>
<path fill="#4d5ae5" style="fill: var(--color1, #4d5ae5)" d="M2.4 3.594h-0.533v0.533h0.533v-0.533z"></path>
<path fill="#2e2f42" style="fill: var(--color2, #2e2f42)" d="M12.357 7.080c-0.144-0.194-0.355-0.319-0.594-0.352-0.241-0.034-0.478 0.029-0.67 0.176l-0.626 0.48-0.949 0.709-0.679-0.27c1.211-0.543 2.057-1.754 2.057-3.16 0-1.912-1.561-3.467-3.481-3.467s-3.481 1.555-3.481 3.467c0 0.693 0.207 1.337 0.56 1.879l-1.382-0.012c-0.001 0-0.002 0-0.002 0-0.004 0-0.008 0.002-0.012 0.002-0.026 0.001-0.052 0.006-0.078 0.015-0.006 0.002-0.013 0.004-0.019 0.007-0.003 0.001-0.006 0.002-0.010 0.003l-1.617 0.798c-0 0-0.001 0-0.001 0l-0.947 0.455c-0.010 0.005-0.021 0.011-0.031 0.018-0.377 0.251-0.506 0.745-0.299 1.148 0.11 0.214 0.298 0.372 0.528 0.445 0.089 0.028 0.179 0.041 0.27 0.041 0.145 0 0.288-0.035 0.42-0.106l0.694-0.369 1.132-0.585 0.678-0.004-2.721 2.708c-0 0-0.001 0-0.001 0.001l-0.669 0.667c-0.158 0.157-0.245 0.366-0.245 0.589s0.087 0.432 0.245 0.589c0.162 0.162 0.376 0.243 0.59 0.243s0.427-0.081 0.59-0.243l0.657-0.654 0.87-0.65 0.45 0.449-0.881 0.877c-0 0-0.001 0-0.001 0.001l-0.669 0.667c-0.158 0.157-0.245 0.366-0.245 0.589s0.087 0.432 0.245 0.589c0.162 0.162 0.376 0.243 0.59 0.243s0.427-0.081 0.59-0.243l1.741-1.733c0-0 0-0.001 0.001-0.001l0.505-0.5-0.002-0.002c0.003-0.003 0.008-0.004 0.011-0.008l2.583-2.829 1.736 0.247c0.013 0.002 0.025 0.003 0.038 0.003 0.032 0 0.063-0.008 0.094-0.019 0.009-0.003 0.017-0.007 0.025-0.012 0.010-0.005 0.020-0.007 0.029-0.014l1.607-1.067c0.006-0.004 0.009-0.010 0.015-0.015s0.014-0.007 0.020-0.013l0.636-0.595c0.331-0.31 0.376-0.818 0.106-1.181zM1.065 8.885c-0.087 0.046-0.185 0.056-0.279 0.026s-0.169-0.093-0.213-0.179c-0.081-0.157-0.034-0.348 0.107-0.451l0.657-0.316 0.225 0.656-0.496 0.264zM2.814 7.971l-0.774 0.4-0.219-0.642 1.013-0.5-0.020 0.742zM10.363 4.661c0 0.459-0.11 0.892-0.299 1.28l-2.091-0.95c-0.022-0.287-0.171-0.538-0.394-0.694l0.732-2.43c1.189 0.378 2.052 1.487 2.052 2.794zM4.469 4.661c0-1.617 1.322-2.933 2.947-2.933 0.126 0 0.25 0.011 0.373 0.026l-0.716 2.377c-0.010-0-0.019-0.003-0.029-0.003-0.516 0-0.936 0.419-0.936 0.933s0.42 0.933 0.936 0.933c0.347 0 0.647-0.192 0.809-0.472l1.931 0.877c-0.537 0.723-1.397 1.195-2.368 1.195-1.625 0-2.947-1.316-2.947-2.933zM7.447 5.061c0 0.221-0.181 0.4-0.403 0.4s-0.403-0.179-0.403-0.4c0-0.221 0.181-0.4 0.403-0.4s0.403 0.179 0.403 0.4zM1.232 12.573c-0.118 0.117-0.309 0.117-0.427 0-0.057-0.057-0.088-0.132-0.088-0.211s0.031-0.154 0.088-0.211l0.481-0.479 0.426 0.424-0.479 0.477zM2.839 14.44c-0.118 0.117-0.31 0.117-0.427 0-0.057-0.057-0.088-0.132-0.088-0.211s0.031-0.154 0.088-0.211l0.481-0.479 0.426 0.424-0.48 0.478zM4.58 12.705c-0 0-0.001 0-0.001 0.001l-0.882 0.88-0.426-0.424 0.882-0.878c0 0 0 0 0-0s0.001-0 0.001-0.001c0.020-0.020 0.033-0.044 0.045-0.068 0.003-0.007 0.010-0.013 0.013-0.020 0.008-0.021 0.010-0.043 0.013-0.064 0.002-0.012 0.007-0.024 0.007-0.036 0-0.018-0.006-0.035-0.010-0.053-0.003-0.016-0.003-0.032-0.009-0.048-0.010-0.025-0.027-0.047-0.046-0.069-0.005-0.006-0.007-0.013-0.013-0.019 0 0 0 0-0 0s-0-0.001-0.001-0.001l-0.803-0.8c-0.009-0.009-0.019-0.012-0.029-0.019-0.014-0.011-0.028-0.021-0.043-0.029s-0.031-0.012-0.047-0.016c-0.017-0.005-0.034-0.009-0.051-0.010-0.016-0.001-0.031 0.001-0.048 0.002-0.018 0.002-0.035 0.005-0.052 0.010s-0.032 0.014-0.047 0.022c-0.010 0.006-0.021 0.007-0.030 0.014l-0.887 0.662-0.45-0.449 1.2-1.193 2.18 2.144-0.464 0.459zM7.99 9.197c-0.008-0.001-0.015 0.002-0.023 0.001-0.019-0.001-0.038 0-0.058 0.003-0.015 0.003-0.030 0.006-0.044 0.011-0.017 0.006-0.033 0.014-0.048 0.023s-0.029 0.019-0.042 0.031c-0.006 0.006-0.014 0.008-0.020 0.015l-2.349 2.573-2.164-2.128 1.417-1.409c0.104-0.104 0.105-0.273 0.001-0.377-0.053-0.053-0.122-0.078-0.191-0.078v-0l-1.109 0.007 0.014-0.804 1.552 0.013c0.633 0.647 1.515 1.050 2.491 1.050 0.219 0 0.432-0.023 0.64-0.061 0.020 0.016 0.040 0.032 0.065 0.042l1.205 0.48 0.076 0.379 0.089 0.443-1.501-0.214zM10.010 9.286l-0.157-0.779 0.723-0.54 0.473 0.628-1.040 0.691zM11.887 7.871l-0.419 0.393-0.466-0.618 0.416-0.319c0.078-0.060 0.175-0.084 0.271-0.071 0.097 0.014 0.182 0.064 0.24 0.142 0.108 0.146 0.090 0.349-0.043 0.474z"></path>
<path fill="#2e2f42" style="fill: var(--color2, #2e2f42)" d="M6.801 9.272l-1.071-1.067c-0.104-0.104-0.272-0.104-0.376 0l-1.071 1.067c-0.050 0.050-0.078 0.118-0.078 0.189s0.028 0.139 0.078 0.189l1.071 1.067c0.052 0.052 0.12 0.078 0.188 0.078s0.136-0.026 0.188-0.078l1.072-1.067c0.050-0.050 0.079-0.118 0.079-0.189s-0.028-0.139-0.079-0.189zM5.542 10.152l-0.693-0.69 0.693-0.69 0.694 0.69-0.694 0.69z"></path>
<path fill="#2e2f42" style="fill: var(--color2, #2e2f42)" d="M8.582 2.535l-0.129 0.518c0.035 0.009 0.869 0.226 0.869 1.074h0.533c-0-1.009-0.833-1.483-1.273-1.592z"></path>
<path fill="#2e2f42" style="fill: var(--color2, #2e2f42)" d="M9.855 4.661h-0.533v0.533h0.533v-0.533z"></path>
</symbol>
<symbol id="icon-Punctuality" viewBox="0 0 16 16">
<path fill="#2e2f42" style="fill: var(--color2, #2e2f42)" d="M15.648 7.651c-0.001-4.226-3.428-7.651-7.654-7.651s-7.651 3.428-7.651 7.654c0.001 3.329 2.153 6.276 5.325 7.288 0.030 0.010 0.062 0.014 0.093 0.014 0.060-0 0.119-0.016 0.171-0.047 0.067-0.040 0.118-0.103 0.142-0.178l1.932-6.125c0.528-0.003 0.954-0.433 0.952-0.961s-0.433-0.954-0.961-0.952c-0.142 0.001-0.282 0.033-0.41 0.096l-2.553-2.553c-0.127-0.122-0.329-0.119-0.451 0.008-0.119 0.124-0.119 0.319 0 0.443l2.552 2.555c-0.196 0.4-0.084 0.882 0.268 1.155l-1.841 5.836c-3.639-1.34-5.502-5.377-4.162-9.016s5.377-5.502 9.016-4.162c3.639 1.34 5.502 5.377 4.162 9.016-0.655 1.778-2 3.216-3.731 3.987l-0.199-0.937c-0.036-0.172-0.206-0.282-0.378-0.246-0.054 0.012-0.105 0.037-0.146 0.074l-1.918 1.713c-0.132 0.117-0.143 0.319-0.026 0.45 0.038 0.043 0.087 0.074 0.142 0.092l2.449 0.782c0.168 0.054 0.347-0.038 0.401-0.206 0.017-0.053 0.020-0.109 0.008-0.164l-0.196-0.92c2.832-1.194 4.671-3.971 4.664-7.045zM7.996 7.332c0.176 0 0.319 0.143 0.319 0.319s-0.143 0.319-0.319 0.319c-0.176 0-0.319-0.143-0.319-0.319s0.143-0.319 0.319-0.319zM9.046 14.764l1.092-0.974 0.301 1.42-1.393-0.446z"></path>
<path fill="#4d5ae5" style="fill: var(--color1, #4d5ae5)" d="M7.677 1.593v0.638c0 0.176 0.143 0.319 0.319 0.319s0.319-0.143 0.319-0.319v-0.638c0-0.176-0.143-0.319-0.319-0.319s-0.319 0.143-0.319 0.319z"></path>
<path fill="#4d5ae5" style="fill: var(--color1, #4d5ae5)" d="M1.938 7.332c-0.176 0-0.319 0.143-0.319 0.319s0.143 0.319 0.319 0.319h0.638c0.176 0 0.319-0.143 0.319-0.319s-0.143-0.319-0.319-0.319h-0.638z"></path>
<path fill="#4d5ae5" style="fill: var(--color1, #4d5ae5)" d="M14.054 7.969c0.176 0 0.319-0.143 0.319-0.319s-0.143-0.319-0.319-0.319h-0.638c-0.176 0-0.319 0.143-0.319 0.319s0.143 0.319 0.319 0.319h0.638z"></path>
</symbol>
<symbol id="icon-Diligence" viewBox="0 0 16 16">
<path fill="#4d5ae5" style="fill: var(--color1, #4d5ae5)" d="M7.463 7.482h0.533v2.399h-0.533v-2.399z"></path>
<path fill="#4d5ae5" style="fill: var(--color1, #4d5ae5)" d="M9.595 8.548h0.533v1.333h-0.533v-1.333z"></path>
<path fill="#4d5ae5" style="fill: var(--color1, #4d5ae5)" d="M5.331 9.348h0.533v0.533h-0.533v-0.533z"></path>
<path fill="#4d5ae5" style="fill: var(--color1, #4d5ae5)" d="M3.731 9.081h0.533v0.8h-0.533v-0.8z"></path>
<path fill="#2e2f42" style="fill: var(--color2, #2e2f42)" d="M0.8 14.145h12.793c0.442 0 0.8-0.358 0.8-0.8v-1.066c0-0.442-0.358-0.8-0.8-0.8h-0.267v-6.647l1.514-1.434c0.351 0.173 0.777 0.068 1.007-0.249s0.198-0.754-0.076-1.034-0.71-0.322-1.032-0.099c-0.322 0.223-0.437 0.646-0.271 1.001l-1.141 1.081v-0.615c0-0.442-0.358-0.8-0.8-0.8h-10.661c-0.442 0-0.8 0.358-0.8 0.8v7.996h-0.267c-0.442 0-0.8 0.358-0.8 0.8v1.066c0 0.442 0.358 0.8 0.8 0.8zM15.192 2.418c0.147 0 0.267 0.119 0.267 0.267s-0.119 0.267-0.267 0.267c-0.147 0-0.267-0.119-0.267-0.267s0.119-0.267 0.267-0.267zM1.599 3.484c0-0.147 0.119-0.267 0.267-0.267h10.661c0.147 0 0.267 0.119 0.267 0.267v1.119l-0.533 0.507v-1.093c0-0.147-0.119-0.267-0.267-0.267h-9.595c-0.147 0-0.267 0.119-0.267 0.267v6.663c0 0.147 0.119 0.267 0.267 0.267h9.595c0.147 0 0.267-0.119 0.267-0.267v-4.837l0.533-0.505v6.142h-11.194v-7.996zM3.998 6.949c-0.361-0.001-0.677 0.239-0.773 0.587s0.053 0.716 0.363 0.9c0.31 0.184 0.705 0.138 0.964-0.113l0.926 0.465c0.108 0.054 0.238 0.029 0.318-0.061l1.969-2.216 1.936 1.451c0.104 0.078 0.249 0.070 0.343-0.020l1.683-1.594v4.066h-9.062v-6.13h9.062v1.33l-1.886 1.786-1.952-1.464c-0.111-0.083-0.267-0.067-0.359 0.036l-1.996 2.246-0.746-0.373c0.005-0.032 0.009-0.064 0.010-0.097 0-0.442-0.358-0.8-0.8-0.8zM4.264 7.749c0 0.147-0.119 0.267-0.267 0.267s-0.267-0.119-0.267-0.267c0-0.147 0.119-0.267 0.267-0.267s0.267 0.119 0.267 0.267zM5.864 12.013h2.665v0.267c0 0.147-0.119 0.267-0.267 0.267h-2.132c-0.147 0-0.267-0.119-0.267-0.267v-0.267zM0.533 12.28c0-0.147 0.119-0.267 0.267-0.267h4.531v0.267c0 0.442 0.358 0.8 0.8 0.8h2.132c0.442 0 0.8-0.358 0.8-0.8v-0.267h4.531c0.147 0 0.267 0.119 0.267 0.267v1.066c0 0.147-0.119 0.267-0.267 0.267h-12.793c-0.147 0-0.267-0.119-0.267-0.267v-1.066z"></path>
</symbol>
<symbol id="icon-Strategy" viewBox="0 0 15 16">
<path fill="#2e2f42" style="fill: var(--color2, #2e2f42)" d="M14.851 11.049l-4.222-4.253 0.469-2.308c0.121 0.047 0.249 0.072 0.379 0.073h0.003c0.596 0.007 1.085-0.471 1.092-1.067s-0.47-1.085-1.067-1.092c-0.596-0.007-1.085 0.47-1.092 1.067-0.002 0.128 0.020 0.254 0.062 0.375l-2.48 0.303-4.045-4.066c-0.050-0.051-0.117-0.079-0.188-0.080s-0.137 0.028-0.187 0.078l-0.756 0.752c-0.104 0.104-0.104 0.273 0 0.377l0.407 0.413c-1.577 2.899-1.064 6.489 1.26 8.831 0.021 0.020 0.046 0.037 0.073 0.049-0.017 0.090-0.026 0.182-0.026 0.274v3.093h-3.2c-0.736 0.001-1.332 0.597-1.333 1.333v0.533c0 0.147 0.119 0.267 0.267 0.267h12.267c0.147 0 0.267-0.119 0.267-0.267v-0.533c-0.001-0.736-0.597-1.332-1.333-1.333h-3.2v-1.371c0.501 0.105 1.012 0.159 1.524 0.16 1.229-0.001 2.439-0.308 3.52-0.892l0.409 0.411c0.050 0.051 0.117 0.079 0.188 0.080s0.137-0.028 0.187-0.078l0.756-0.752c0.104-0.104 0.104-0.273 0-0.377zM11.105 3.117c0.209-0.208 0.547-0.207 0.754 0.002s0.207 0.547-0.002 0.754c-0.1 0.099-0.235 0.155-0.376 0.155h-0.002c-0.295-0.002-0.532-0.242-0.531-0.536 0.001-0.141 0.057-0.276 0.157-0.375h-0.001zM10.477 4.869l-0.299 1.473-0.588-0.591 0.887-0.882zM10.174 4.418l-0.96 0.954-0.743-0.747 1.703-0.208zM11.467 14.4c0.442 0 0.8 0.358 0.8 0.8v0.267h-11.733v-0.267c0-0.442 0.358-0.8 0.8-0.8h10.133zM7.733 13.333v0.533h-2.667v-0.533h2.667zM5.067 12.8v-2.027c0-0.647 0.598-1.173 1.333-1.173s1.333 0.526 1.333 1.173v2.027h-2.667zM8.267 11.952v-1.179c0-0.941-0.837-1.707-1.867-1.707-0.666-0.010-1.288 0.329-1.641 0.893-2.029-2.137-2.486-5.323-1.139-7.944l9.301 9.354c-1.436 0.731-3.083 0.936-4.654 0.582zM13.911 11.61l-10.529-10.59 0.377-0.376 3.967 3.99c0.002 0 0.003 0.003 0.005 0.005l6.557 6.596-0.378 0.376z"></path>
<path fill="#4d5ae5" style="fill: var(--color1, #4d5ae5)" d="M6.402 10.133h-0.002c-0.442-0.001-0.801 0.357-0.801 0.799s0.357 0.801 0.799 0.801h0.002c0.442 0.001 0.801-0.357 0.801-0.799s-0.357-0.801-0.799-0.801zM6.589 11.122c-0.050 0.050-0.118 0.078-0.189 0.078-0.147-0.001-0.266-0.121-0.265-0.268 0-0.070 0.029-0.138 0.079-0.188s0.117-0.077 0.187-0.078c0.147 0.001 0.266 0.121 0.265 0.268-0 0.070-0.029 0.138-0.079 0.188h0.002z"></path>
</symbol>
</defs>
</svg>
